HIERARCHY
ROOT Pelvis
{
	OFFSET 0.000000 0.941512 0.000000
	CHANNELS 6 Xposition Yposition Zposition Zrotation Yrotation Xrotation 
	JOINT Pelvis_L_Hip
	{
		OFFSET 0.000000 0.000000 0.000000
		CHANNELS 3 Zrotation Yrotation Xrotation
		JOINT L_Hip
		{
			OFFSET 0.062321 -0.080322 -0.016990
			CHANNELS 3 Zrotation Yrotation Xrotation
			JOINT L_Knee
			{
				OFFSET 0.093051 -0.381305 -0.029784
				CHANNELS 3 Zrotation Yrotation Xrotation
				JOINT L_Ankle
				{
					OFFSET -0.010371 -0.431000 -0.033614
					CHANNELS 3 Zrotation Yrotation Xrotation
					End Site #name: L_Foot
					{
						OFFSET 0.069299 -0.038670 0.119418
					}
				}
			}
		}
	}
	JOINT Pelvis_R_Hip
	{
		OFFSET 0.000000 0.000000 0.000000
		CHANNELS 3 Zrotation Yrotation Xrotation
		JOINT R_Hip
		{
			OFFSET -0.055334 -0.094904 -0.002373
			CHANNELS 3 Zrotation Yrotation Xrotation
			JOINT R_Knee
			{
				OFFSET -0.064207 -0.384370 -0.019592
				CHANNELS 3 Zrotation Yrotation Xrotation
				JOINT R_Ankle
				{
					OFFSET 0.025418 -0.419734 -0.065953
					CHANNELS 3 Zrotation Yrotation Xrotation
					End Site #name: R_Foot
					{
						OFFSET -0.057233 -0.039888 0.132134
					}
				}
			}
		}
	}
	JOINT Pelvis_Spine1
	{
		OFFSET 0.000000 0.000000 0.000000
		CHANNELS 3 Zrotation Yrotation Xrotation
		JOINT Spine1
		{
			OFFSET -0.005562 0.124093 -0.043360
			CHANNELS 3 Zrotation Yrotation Xrotation
			JOINT Spine2
			{
				OFFSET 0.012244 0.139499 0.029894
				CHANNELS 3 Zrotation Yrotation Xrotation
				JOINT Spine3
				{
					OFFSET -0.002556 0.056561 0.009225
					CHANNELS 3 Zrotation Yrotation Xrotation
					JOINT Spine3_Neck
					{
						OFFSET 0.000000 0.000000 0.000000
						CHANNELS 3 Zrotation Yrotation Xrotation
						JOINT Neck
						{
							OFFSET -0.005205 0.217920 -0.024551
							CHANNELS 3 Zrotation Yrotation Xrotation
							End Site #name: Head
							{
								OFFSET 0.002365 0.091850 0.046637
							}
						}
					}
					JOINT Spine3_L_Collar
					{
						OFFSET 0.000000 0.000000 0.000000
						CHANNELS 3 Zrotation Yrotation Xrotation
						JOINT L_Collar
						{
							OFFSET 0.072225 0.116603 -0.009480
							CHANNELS 3 Zrotation Yrotation Xrotation
							JOINT L_Shoulder
							{
								OFFSET 0.115937 -0.058643 -0.021018
								CHANNELS 3 Zrotation Yrotation Xrotation
								JOINT L_Elbow
								{
									OFFSET 0.021994 -0.254722 -0.024492
									CHANNELS 3 Zrotation Yrotation Xrotation
									End Site #name: L_Wrist
									{
										OFFSET 0.048810 -0.240214 0.103329
									}
								}
							}
						}
					}
					JOINT Spine3_R_Collar
					{
						OFFSET 0.000000 0.000000 0.000000
						CHANNELS 3 Zrotation Yrotation Xrotation
						JOINT R_Collar
						{
							OFFSET -0.073372 0.120704 -0.024611
							CHANNELS 3 Zrotation Yrotation Xrotation
							JOINT R_Shoulder
							{
								OFFSET -0.108089 -0.054969 -0.020504
								CHANNELS 3 Zrotation Yrotation Xrotation
								JOINT R_Elbow
								{
									OFFSET -0.033684 -0.260739 0.009889
									CHANNELS 3 Zrotation Yrotation Xrotation
									End Site #name: R_Wrist
									{
										OFFSET -0.067980 -0.232763 0.118463
									}
								}
							}
						}
					}
				}
			}
		}
	}
}
MOTION
Frames: 10
Frame Time: 0.041667
0.029708 1.002608 -0.078150 -3.277985 -3.260624 10.174849 0.000000 0.000000 0.000000 5.326546 -9.593868 -50.113632 -5.970353 3.601382 63.991370 -13.699719 3.348724 24.649805 0.000000 0.000000 0.000000 18.944914 5.091771 -18.437106 -11.702928 4.429875 14.445620 7.319605 1.939696 13.764393 0.000000 0.000000 0.000000 -1.835293 -0.334437 11.488997 -3.613400 3.127839 28.423915 7.664577 3.744167 -40.114511 0.000000 0.000000 0.000000 -0.205314 -0.547595 34.787359 0.000000 0.000000 0.000000 44.025972 -14.502663 -5.678360 -37.061783 3.252743 4.318531 -7.686195 -6.034960 -9.123396 0.000000 0.000000 0.000000 -50.173984 8.746649 5.020020 44.476374 -4.235747 15.057515 -9.158262 5.930848 -44.380066 
0.052355 0.985817 -0.093548 -1.159642 -7.372431 18.473590 0.000000 0.000000 0.000000 9.950342 -8.890660 -67.445439 -14.311114 13.566834 77.932706 -7.309101 8.359171 18.318942 0.000000 0.000000 0.000000 11.953103 8.007699 -30.743896 -8.765723 4.124036 17.258039 8.055416 2.310911 14.351788 0.000000 0.000000 0.000000 0.924334 -0.694044 5.299762 -8.965196 3.391600 13.977029 7.838242 5.389278 -27.709194 0.000000 0.000000 0.000000 -1.966345 1.230687 31.721410 0.000000 0.000000 0.000000 51.306795 -8.746630 2.201641 -43.311557 10.555074 15.825863 -9.880749 -6.195184 -5.991068 0.000000 0.000000 0.000000 -61.120192 9.292253 7.893280 50.052157 4.037297 -0.725273 -20.733507 1.807901 -90.156718 
0.052463 1.027767 -0.098970 -5.602651 -4.932201 13.013052 0.000000 0.000000 0.000000 -3.660726 -5.680854 -22.856952 7.203987 -2.030940 17.969857 -10.537620 1.056568 18.895059 0.000000 0.000000 0.000000 7.495451 11.905344 -47.840425 7.447464 -0.226810 61.305709 9.743417 -5.430635 26.296599 0.000000 0.000000 0.000000 4.535537 -2.649626 12.511714 -6.849443 4.273516 25.520873 5.392109 3.234597 -39.487582 0.000000 0.000000 0.000000 -0.706715 0.052742 34.261906 0.000000 0.000000 0.000000 48.034530 -11.189963 -1.183293 -38.744198 0.142973 -2.793736 3.659462 -7.609838 -45.522326 0.000000 0.000000 0.000000 -53.859964 11.211156 3.236843 48.534814 -3.429087 12.924226 -4.407387 7.879665 -35.591128 
0.055034 1.003677 -0.112540 -9.545976 1.770203 19.693419 0.000000 0.000000 0.000000 -0.471605 -6.730767 -28.728802 11.617783 -2.341639 11.205594 -9.126130 1.691847 16.257458 0.000000 0.000000 0.000000 5.074620 13.940244 -63.956390 8.798685 -3.357972 71.718846 5.455986 -6.494885 18.514967 0.000000 0.000000 0.000000 11.060193 -4.370880 7.268699 -4.748858 2.252160 16.045446 5.135622 1.296107 -31.192088 0.000000 0.000000 0.000000 -0.719105 -0.089436 31.114086 0.000000 0.000000 0.000000 54.510884 -11.070088 0.378831 -44.946535 -3.631442 -11.767869 13.281845 -3.213228 -84.174592 0.000000 0.000000 0.000000 -57.714588 10.420707 4.638468 51.496100 -10.328865 22.129789 0.356870 4.863851 -15.026168 
0.039088 1.015706 -0.105770 -4.600943 1.984969 12.868248 0.000000 0.000000 0.000000 5.863220 -9.965721 -49.385315 -10.956259 5.753439 61.023365 -10.590575 6.418591 21.961826 0.000000 0.000000 0.000000 15.053987 5.194898 -20.787587 -9.229370 4.568538 21.067623 7.741273 1.187986 16.087207 0.000000 0.000000 0.000000 2.098917 -1.954989 12.126513 -4.899189 3.007777 24.032572 8.147374 5.359772 -37.465413 0.000000 0.000000 0.000000 0.265667 -1.712679 33.743760 0.000000 0.000000 0.000000 45.598255 -13.287358 -2.855039 -39.405203 1.848189 -0.100362 -9.196598 -7.377833 -10.763598 0.000000 0.000000 0.000000 -53.248801 10.105862 2.580110 45.931741 -0.188105 8.288135 -10.083806 6.898186 -51.153919 
0.033941 0.966160 -0.106023 -5.472796 -2.439275 17.520728 0.000000 0.000000 0.000000 14.898036 -6.939187 -61.642488 -16.308102 12.010383 67.003865 -5.471608 11.364136 17.829327 0.000000 0.000000 0.000000 15.018754 6.623062 -25.214743 -9.423199 4.925021 21.392567 4.412119 4.863000 5.953762 0.000000 0.000000 0.000000 1.978573 -0.795776 2.726270 -8.702337 3.831451 18.122933 10.293928 8.204784 -27.007506 0.000000 0.000000 0.000000 -1.141605 -0.181035 25.899651 0.000000 0.000000 0.000000 52.731444 -6.871535 7.005685 -45.145544 8.029637 9.105584 -10.113756 -6.490730 -6.509869 0.000000 0.000000 0.000000 -61.583560 9.398251 5.629695 52.621026 6.559238 -2.950441 -16.328945 13.409289 -90.359480 
0.030443 0.997157 -0.092791 -9.988590 -3.554898 12.279598 0.000000 0.000000 0.000000 2.459265 -5.933358 -27.514325 7.354178 -2.692762 25.702783 -4.672498 6.725323 13.065542 0.000000 0.000000 0.000000 13.372634 9.273254 -33.716406 -1.679580 4.491623 42.322690 21.165849 9.818340 31.943300 0.000000 0.000000 0.000000 1.851137 -1.484105 10.056601 -5.040836 2.990122 21.475924 9.592543 6.945852 -34.308297 0.000000 0.000000 0.000000 -1.179193 0.044041 29.594572 0.000000 0.000000 0.000000 49.555723 -8.208184 3.749723 -35.376957 3.202895 3.329145 5.241641 4.698790 17.697579 0.000000 0.000000 0.000000 -55.009085 9.679707 4.354529 46.039974 1.033157 5.451642 -8.591801 3.480960 -34.481437 
0.038607 0.996298 -0.082569 -10.305589 0.429451 13.723720 0.000000 0.000000 0.000000 2.137323 -5.369407 -24.027184 9.054222 -2.255121 14.843478 -5.422119 5.921432 13.343356 0.000000 0.000000 0.000000 3.531479 7.866045 -39.748463 1.075433 2.339721 45.400929 12.977124 6.237306 21.759379 0.000000 0.000000 0.000000 8.083451 -2.376088 2.223178 -3.889324 2.275072 19.351637 6.066651 3.078799 -28.601839 0.000000 0.000000 0.000000 -1.178571 0.044425 29.901563 0.000000 0.000000 0.000000 57.813705 -9.032644 4.867056 -13.187681 1.006457 0.853393 3.486197 6.513216 33.478523 0.000000 0.000000 0.000000 -60.903836 6.615416 10.869373 27.811069 -0.688124 7.080256 -11.331114 -4.421419 -6.899443 
0.015316 1.052418 -0.079150 -8.744672 2.861871 11.922634 0.000000 0.000000 0.000000 5.772739 -4.703726 -22.240630 7.193711 -1.351924 8.935353 -22.570344 2.769461 36.294014 0.000000 0.000000 0.000000 5.054309 5.022049 -25.352614 -6.587415 3.298682 19.047238 5.976035 -6.495813 20.367283 0.000000 0.000000 0.000000 6.644695 -2.754366 6.978683 -8.478385 3.962202 20.718848 8.381269 6.720693 -30.933230 0.000000 0.000000 0.000000 -2.152198 0.088114 31.200860 0.000000 0.000000 0.000000 55.025484 -10.552478 3.661286 -4.763330 0.906060 4.387650 9.986155 7.307932 35.636774 0.000000 0.000000 0.000000 -62.019227 12.168873 0.706345 27.971150 -3.878228 16.317316 -9.068489 -8.768165 24.866294 
-0.023592 1.044375 -0.074557 -4.752222 3.504415 12.591658 0.000000 0.000000 0.000000 9.817609 -4.610411 -23.942160 7.024701 -1.707335 13.175953 -14.379036 -1.355562 21.835873 0.000000 0.000000 0.000000 1.821903 3.397572 -19.249054 -2.734640 1.129784 8.461363 3.194861 -12.096416 20.883000 0.000000 0.000000 0.000000 -0.155963 -0.563730 6.101261 -10.438402 4.333329 18.742443 9.218778 7.899656 -31.578155 0.000000 0.000000 0.000000 -1.608098 -0.449954 27.423803 0.000000 0.000000 0.000000 43.684384 -9.358549 2.452554 -8.443389 1.514597 5.970678 8.867752 7.334780 37.082682 0.000000 0.000000 0.000000 -48.991831 11.898529 -2.608409 32.482202 -5.544858 19.837305 -8.300586 -9.726802 31.804514 
